<?xml version="1.0" encoding="UTF-8" standalone="no"?><svg xmlns="http://www.w3.org/2000/svg" xmlns:xlink="http://www.w3.org/1999/xlink" contentScriptType="application/ecmascript" contentStyleType="text/css" height="261px" preserveAspectRatio="none" style="width:776px;height:261px;" version="1.1" viewBox="0 0 776 261" width="776px" zoomAndPan="magnify"><defs><filter height="300%" id="fbafzyfyz5gui" width="300%" x="-1" y="-1"><feGaussianBlur result="blurOut" stdDeviation="2.0"/><feColorMatrix in="blurOut" result="blurOut2" type="matrix" values="0 0 0 0 0 0 0 0 0 0 0 0 0 0 0 0 0 0 .4 0"/><feOffset dx="4.0" dy="4.0" in="blurOut2" result="blurOut3"/><feBlend in="SourceGraphic" in2="blurOut3" mode="normal"/></filter></defs><g><!--MD5=[d6b67515edc65ff87a3a58a82caf6931]
cluster Decided to separate only the REST API into two and implement the service and table as one--><polygon fill="#FFFFFF" filter="url(#fbafzyfyz5gui)" points="14,24,744,24,751,46.2969,754,46.2969,754,249,14,249,14,24" style="stroke: #000000; stroke-width: 1.5;"/><line style="stroke: #000000; stroke-width: 1.5;" x1="14" x2="751" y1="46.2969" y2="46.2969"/><text fill="#000000" font-family="sans-serif" font-size="14" font-weight="bold" lengthAdjust="spacingAndGlyphs" textLength="724" x="18" y="38.9951">Decided to separate only the REST API into two and implement the service and table as one</text><!--MD5=[b244f6153427e463418825080856ced7]
cluster REST API Layer--><polygon fill="#FFFFFF" filter="url(#fbafzyfyz5gui)" points="114,67,238,67,245,89.2969,252,89.2969,252,225,114,225,114,67" style="stroke: #000000; stroke-width: 1.5;"/><line style="stroke: #000000; stroke-width: 1.5;" x1="114" x2="245" y1="89.2969" y2="89.2969"/><text fill="#000000" font-family="sans-serif" font-size="14" font-weight="bold" lengthAdjust="spacingAndGlyphs" textLength="118" x="118" y="81.9951">REST API Layer</text><!--MD5=[167559344b6808c6e7281c72e5103d8e]
cluster Service Layer--><polygon fill="#FFFFFF" filter="url(#fbafzyfyz5gui)" points="280,103,394,103,401,125.2969,459,125.2969,459,190,280,190,280,103" style="stroke: #000000; stroke-width: 1.5;"/><line style="stroke: #000000; stroke-width: 1.5;" x1="280" x2="401" y1="125.2969" y2="125.2969"/><text fill="#000000" font-family="sans-serif" font-size="14" font-weight="bold" lengthAdjust="spacingAndGlyphs" textLength="108" x="284" y="117.9951">Service Layer</text><!--MD5=[023fe2768d341cd525e8503fdfbee177]
cluster Data Layer--><polygon fill="#FFFFFF" filter="url(#fbafzyfyz5gui)" points="487,103,577,103,584,125.2969,654,125.2969,654,190,487,190,487,103" style="stroke: #000000; stroke-width: 1.5;"/><line style="stroke: #000000; stroke-width: 1.5;" x1="487" x2="584" y1="125.2969" y2="125.2969"/><text fill="#000000" font-family="sans-serif" font-size="14" font-weight="bold" lengthAdjust="spacingAndGlyphs" textLength="84" x="491" y="117.9951">Data Layer</text><!--MD5=[40925588c3c688b5f1c26d75dfca4142]
entity Apostille API--><rect fill="#FEFECE" filter="url(#fbafzyfyz5gui)" height="36.2969" style="stroke: #A80036; stroke-width: 1.5;" width="103" x="131.5" y="102"/><rect fill="#FEFECE" height="5" style="stroke: #A80036; stroke-width: 1.5;" width="10" x="126.5" y="107"/><rect fill="#FEFECE" height="5" style="stroke: #A80036; stroke-width: 1.5;" width="10" x="126.5" y="128.2969"/><text fill="#000000" font-family="sans-serif" font-size="14" lengthAdjust="spacingAndGlyphs" textLength="83" x="141.5" y="124.9951">Apostille API</text><!--MD5=[7f74950928cce643f40b084fc7a6350c]
entity Consular API--><rect fill="#FEFECE" filter="url(#fbafzyfyz5gui)" height="36.2969" style="stroke: #A80036; stroke-width: 1.5;" width="106" x="130" y="173"/><rect fill="#FEFECE" height="5" style="stroke: #A80036; stroke-width: 1.5;" width="10" x="125" y="178"/><rect fill="#FEFECE" height="5" style="stroke: #A80036; stroke-width: 1.5;" width="10" x="125" y="199.2969"/><text fill="#000000" font-family="sans-serif" font-size="14" lengthAdjust="spacingAndGlyphs" textLength="86" x="140" y="195.9951">Consular API</text><!--MD5=[6903f9ae62deaf1997a3bb182c825b49]
entity Document Service--><rect fill="#FEFECE" filter="url(#fbafzyfyz5gui)" height="36.2969" style="stroke: #A80036; stroke-width: 1.5;" width="147" x="296" y="138"/><rect fill="#FEFECE" height="5" style="stroke: #A80036; stroke-width: 1.5;" width="10" x="291" y="143"/><rect fill="#FEFECE" height="5" style="stroke: #A80036; stroke-width: 1.5;" width="10" x="291" y="164.2969"/><text fill="#000000" font-family="sans-serif" font-size="14" lengthAdjust="spacingAndGlyphs" textLength="127" x="306" y="160.9951">Document Service</text><!--MD5=[5ced11698a11e0d86298cdf0e2e9c119]
entity Document Table--><rect fill="#FEFECE" filter="url(#fbafzyfyz5gui)" height="36.2969" style="stroke: #A80036; stroke-width: 1.5;" width="135" x="503" y="138"/><rect fill="#FEFECE" height="5" style="stroke: #A80036; stroke-width: 1.5;" width="10" x="498" y="143"/><rect fill="#FEFECE" height="5" style="stroke: #A80036; stroke-width: 1.5;" width="10" x="498" y="164.2969"/><text fill="#000000" font-family="sans-serif" font-size="14" lengthAdjust="spacingAndGlyphs" textLength="115" x="513" y="160.9951">Document Table</text><!--MD5=[7d9e2c747d0aec3f4e495fd152bdde01]
link Apostille API to Document Service--><path d="M234.9,129.93 C252.06,133.28 271.63,137.1 290.39,140.76 " fill="none" id="Apostille API-&gt;Document Service" style="stroke: #A80036; stroke-width: 1.0;"/><polygon fill="#A80036" points="295.66,141.79,287.5907,136.1432,290.7522,140.8341,286.0613,143.9956,295.66,141.79" style="stroke: #A80036; stroke-width: 1.0;"/><!--MD5=[c56190897cf8f5ad1b61fe332803ba6a]
link Consular API to Document Service--><path d="M236.38,181.06 C253.22,177.87 272.27,174.26 290.54,170.79 " fill="none" id="Consular API-&gt;Document Service" style="stroke: #A80036; stroke-width: 1.0;"/><polygon fill="#A80036" points="295.68,169.81,286.0938,167.5506,290.7669,170.7383,287.5792,175.4115,295.68,169.81" style="stroke: #A80036; stroke-width: 1.0;"/><!--MD5=[f32edfbb496cfd15b28c72b35aaa2281]
link Document Service to Document Table--><path d="M443.19,156 C460.9,156 479.83,156 497.51,156 " fill="none" id="Document Service-&gt;Document Table" style="stroke: #A80036; stroke-width: 1.0;"/><polygon fill="#A80036" points="502.95,156,493.95,152,497.95,156,493.95,160,502.95,156" style="stroke: #A80036; stroke-width: 1.0;"/><!--MD5=[a6f409ef53adff8417e41a92d4a63a53]
@startuml
left to right direction

package "Decided to separate only the REST API into two and implement the service and table as one" {
    package "REST API Layer" {
    [Apostille API]
    [Consular API]
    }

    package "Service Layer" {
    [Document Service]
    }

    package "Data Layer" {
    [Document Table]
    }

    [Apostille API] - -> [Document Service]
    [Consular API] - -> [Document Service]
    [Document Service] - -> [Document Table]
}

@enduml

PlantUML version 1.2020.02(Sun Mar 01 10:22:07 UTC 2020)
(GPL source distribution)
Java Runtime: OpenJDK Runtime Environment
JVM: OpenJDK 64-Bit Server VM
Java Version: 17.0.11+9-Debian-1deb12u1
Operating System: Linux
Default Encoding: UTF-8
Language: en
Country: null
--></g></svg>