<?xml version="1.0" encoding="UTF-8" standalone="no"?><svg xmlns="http://www.w3.org/2000/svg" xmlns:xlink="http://www.w3.org/1999/xlink" contentScriptType="application/ecmascript" contentStyleType="text/css" height="543px" preserveAspectRatio="none" style="width:589px;height:543px;" version="1.1" viewBox="0 0 589 543" width="589px" zoomAndPan="magnify"><defs><filter height="300%" id="fqmb7rd84759u" width="300%" x="-1" y="-1"><feGaussianBlur result="blurOut" stdDeviation="2.0"/><feColorMatrix in="blurOut" result="blurOut2" type="matrix" values="0 0 0 0 0 0 0 0 0 0 0 0 0 0 0 0 0 0 .4 0"/><feOffset dx="4.0" dy="4.0" in="blurOut2" result="blurOut3"/><feBlend in="SourceGraphic" in2="blurOut3" mode="normal"/></filter></defs><g><line style="stroke: #A80036; stroke-width: 1.0; stroke-dasharray: 5.0,5.0;" x1="27" x2="27" y1="86.2969" y2="455.8906"/><line style="stroke: #A80036; stroke-width: 1.0; stroke-dasharray: 5.0,5.0;" x1="247.5" x2="247.5" y1="86.2969" y2="455.8906"/><line style="stroke: #A80036; stroke-width: 1.0; stroke-dasharray: 5.0,5.0;" x1="542.5" x2="542.5" y1="86.2969" y2="455.8906"/><text fill="#000000" font-family="sans-serif" font-size="14" lengthAdjust="spacingAndGlyphs" textLength="32" x="8" y="82.9951">User</text><ellipse cx="27" cy="13" fill="#FEFECE" filter="url(#fqmb7rd84759u)" rx="8" ry="8" style="stroke: #A80036; stroke-width: 2.0;"/><path d="M27,21 L27,48 M14,29 L40,29 M27,48 L14,63 M27,48 L40,63 " fill="none" filter="url(#fqmb7rd84759u)" style="stroke: #A80036; stroke-width: 2.0;"/><text fill="#000000" font-family="sans-serif" font-size="14" lengthAdjust="spacingAndGlyphs" textLength="32" x="8" y="467.8857">User</text><ellipse cx="27" cy="481.1875" fill="#FEFECE" filter="url(#fqmb7rd84759u)" rx="8" ry="8" style="stroke: #A80036; stroke-width: 2.0;"/><path d="M27,489.1875 L27,516.1875 M14,497.1875 L40,497.1875 M27,516.1875 L14,531.1875 M27,516.1875 L40,531.1875 " fill="none" filter="url(#fqmb7rd84759u)" style="stroke: #A80036; stroke-width: 2.0;"/><rect fill="#FEFECE" filter="url(#fqmb7rd84759u)" height="30.2969" style="stroke: #A80036; stroke-width: 1.5;" width="77" x="207.5" y="51"/><text fill="#000000" font-family="sans-serif" font-size="14" lengthAdjust="spacingAndGlyphs" textLength="63" x="214.5" y="70.9951">Frontend</text><rect fill="#FEFECE" filter="url(#fqmb7rd84759u)" height="30.2969" style="stroke: #A80036; stroke-width: 1.5;" width="77" x="207.5" y="454.8906"/><text fill="#000000" font-family="sans-serif" font-size="14" lengthAdjust="spacingAndGlyphs" textLength="63" x="214.5" y="474.8857">Frontend</text><rect fill="#FEFECE" filter="url(#fqmb7rd84759u)" height="30.2969" style="stroke: #A80036; stroke-width: 1.5;" width="75" x="503.5" y="51"/><text fill="#000000" font-family="sans-serif" font-size="14" lengthAdjust="spacingAndGlyphs" textLength="61" x="510.5" y="70.9951">Backend</text><rect fill="#FEFECE" filter="url(#fqmb7rd84759u)" height="30.2969" style="stroke: #A80036; stroke-width: 1.5;" width="75" x="503.5" y="454.8906"/><text fill="#000000" font-family="sans-serif" font-size="14" lengthAdjust="spacingAndGlyphs" textLength="61" x="510.5" y="474.8857">Backend</text><polygon fill="#A80036" points="236,113.4297,246,117.4297,236,121.4297,240,117.4297" style="stroke: #A80036; stroke-width: 1.0;"/><line style="stroke: #A80036; stroke-width: 1.0;" x1="27" x2="242" y1="117.4297" y2="117.4297"/><text fill="#000000" font-family="sans-serif" font-size="13" lengthAdjust="spacingAndGlyphs" textLength="197" x="34" y="112.3638">Access movie ticketing system</text><polygon fill="#A80036" points="531,142.5625,541,146.5625,531,150.5625,535,146.5625" style="stroke: #A80036; stroke-width: 1.0;"/><line style="stroke: #A80036; stroke-width: 1.0;" x1="248" x2="537" y1="146.5625" y2="146.5625"/><text fill="#000000" font-family="sans-serif" font-size="13" lengthAdjust="spacingAndGlyphs" textLength="255" x="255" y="141.4966">Request list of currently showing movies</text><polygon fill="#A80036" points="259,171.6953,249,175.6953,259,179.6953,255,175.6953" style="stroke: #A80036; stroke-width: 1.0;"/><line style="stroke: #A80036; stroke-width: 1.0; stroke-dasharray: 2.0,2.0;" x1="253" x2="542" y1="175.6953" y2="175.6953"/><text fill="#000000" font-family="sans-serif" font-size="13" lengthAdjust="spacingAndGlyphs" textLength="56" x="265" y="170.6294">movies[]</text><polygon fill="#A80036" points="38,200.8281,28,204.8281,38,208.8281,34,204.8281" style="stroke: #A80036; stroke-width: 1.0;"/><line style="stroke: #A80036; stroke-width: 1.0; stroke-dasharray: 2.0,2.0;" x1="32" x2="247" y1="204.8281" y2="204.8281"/><text fill="#000000" font-family="sans-serif" font-size="13" lengthAdjust="spacingAndGlyphs" textLength="135" x="44" y="199.7622">Provide list of movies</text><polygon fill="#A80036" points="236,229.9609,246,233.9609,236,237.9609,240,233.9609" style="stroke: #A80036; stroke-width: 1.0;"/><line style="stroke: #A80036; stroke-width: 1.0;" x1="27" x2="242" y1="233.9609" y2="233.9609"/><text fill="#000000" font-family="sans-serif" font-size="13" lengthAdjust="spacingAndGlyphs" textLength="83" x="34" y="228.895">Select movie</text><polygon fill="#A80036" points="531,259.0938,541,263.0938,531,267.0938,535,263.0938" style="stroke: #A80036; stroke-width: 1.0;"/><line style="stroke: #A80036; stroke-width: 1.0;" x1="248" x2="537" y1="263.0938" y2="263.0938"/><text fill="#000000" font-family="sans-serif" font-size="13" lengthAdjust="spacingAndGlyphs" textLength="271" x="255" y="258.0278">Request list of theaters showing the movie</text><polygon fill="#A80036" points="259,288.2266,249,292.2266,259,296.2266,255,292.2266" style="stroke: #A80036; stroke-width: 1.0;"/><line style="stroke: #A80036; stroke-width: 1.0; stroke-dasharray: 2.0,2.0;" x1="253" x2="542" y1="292.2266" y2="292.2266"/><text fill="#000000" font-family="sans-serif" font-size="13" lengthAdjust="spacingAndGlyphs" textLength="64" x="265" y="287.1606">theaters[]</text><polygon fill="#A80036" points="38,317.3594,28,321.3594,38,325.3594,34,321.3594" style="stroke: #A80036; stroke-width: 1.0;"/><line style="stroke: #A80036; stroke-width: 1.0; stroke-dasharray: 2.0,2.0;" x1="32" x2="247" y1="321.3594" y2="321.3594"/><text fill="#000000" font-family="sans-serif" font-size="13" lengthAdjust="spacingAndGlyphs" textLength="143" x="44" y="316.2935">Provide list of theaters</text><polygon fill="#A80036" points="236,346.4922,246,350.4922,236,354.4922,240,350.4922" style="stroke: #A80036; stroke-width: 1.0;"/><line style="stroke: #A80036; stroke-width: 1.0;" x1="27" x2="242" y1="350.4922" y2="350.4922"/><text fill="#000000" font-family="sans-serif" font-size="13" lengthAdjust="spacingAndGlyphs" textLength="91" x="34" y="345.4263">Select theater</text><polygon fill="#A80036" points="531,375.625,541,379.625,531,383.625,535,379.625" style="stroke: #A80036; stroke-width: 1.0;"/><line style="stroke: #A80036; stroke-width: 1.0;" x1="248" x2="537" y1="379.625" y2="379.625"/><text fill="#000000" font-family="sans-serif" font-size="13" lengthAdjust="spacingAndGlyphs" textLength="162" x="255" y="374.5591">Request list of showtimes</text><polygon fill="#A80036" points="259,404.7578,249,408.7578,259,412.7578,255,408.7578" style="stroke: #A80036; stroke-width: 1.0;"/><line style="stroke: #A80036; stroke-width: 1.0; stroke-dasharray: 2.0,2.0;" x1="253" x2="542" y1="408.7578" y2="408.7578"/><text fill="#000000" font-family="sans-serif" font-size="13" lengthAdjust="spacingAndGlyphs" textLength="78" x="265" y="403.6919">showdates[]</text><polygon fill="#A80036" points="38,433.8906,28,437.8906,38,441.8906,34,437.8906" style="stroke: #A80036; stroke-width: 1.0;"/><line style="stroke: #A80036; stroke-width: 1.0; stroke-dasharray: 2.0,2.0;" x1="32" x2="247" y1="437.8906" y2="437.8906"/><text fill="#000000" font-family="sans-serif" font-size="13" lengthAdjust="spacingAndGlyphs" textLength="157" x="44" y="432.8247">Provide list of showtimes</text><!--MD5=[0f9e99e9b612683493b671b0ddfc2aeb]
@startuml
actor User as customer
participant "Frontend" as front
participant "Backend" as back

customer -> front : Access movie ticketing system
front -> back : Request list of currently showing movies
front <- - back : movies[]
customer <- - front : Provide list of movies
customer -> front : Select movie
front -> back : Request list of theaters showing the movie
front <- - back : theaters[]
customer <- - front : Provide list of theaters
customer -> front : Select theater
front -> back : Request list of showtimes
front <- - back : showdates[]
customer <- - front : Provide list of showtimes
@enduml

PlantUML version 1.2020.02(Sun Mar 01 10:22:07 UTC 2020)
(GPL source distribution)
Java Runtime: OpenJDK Runtime Environment
JVM: OpenJDK 64-Bit Server VM
Java Version: 17.0.11+9-Debian-1deb12u1
Operating System: Linux
Default Encoding: UTF-8
Language: en
Country: null
--></g></svg>